<?xml version="1.0" encoding="utf-8"?>
<!-- Generator: Adobe Illustrator 28.2.0, SVG Export Plug-In . SVG Version: 6.00 Build 0)  -->
<svg version="1.1"
	 id="Layer_1" xmlns:cc="http://creativecommons.org/ns#" xmlns:dc="http://purl.org/dc/elements/1.1/" xmlns:rdf="http://www.w3.org/1999/02/22-rdf-syntax-ns#"
	 xmlns="http://www.w3.org/2000/svg" xmlns:xlink="http://www.w3.org/1999/xlink" x="0px" y="0px" viewBox="0 0 432 432"
	 style="enable-background:new 0 0 432 432;" xml:space="preserve">
<style type="text/css">
	.st0{fill-rule:evenodd;clip-rule:evenodd;fill:#C6C6C6;}
	.st1{fill-rule:evenodd;clip-rule:evenodd;fill-opacity:0.255;}
	.st2{fill-rule:evenodd;clip-rule:evenodd;fill-opacity:0.4392;}
	.st3{fill-rule:evenodd;clip-rule:evenodd;fill:#FFFFFF;fill-opacity:0.3;}
	.st4{clip-path:url(#SVGID_00000057826836572039358690000005123686798709792151_);}
	.st5{fill-rule:evenodd;clip-rule:evenodd;fill-opacity:1.568600e-02;}
	
		.st6{opacity:0.577;fill-rule:evenodd;clip-rule:evenodd;fill:url(#SVGID_00000036949633872868244370000012707734185969542304_);enable-background:new    ;}
	.st7{fill-rule:evenodd;clip-rule:evenodd;fill:url(#SVGID_00000152246302082830167590000016646994083135273888_);}
	.st8{fill-rule:evenodd;clip-rule:evenodd;fill:url(#SVGID_00000157990809585113212940000002335252750971623311_);}
	.st9{fill-rule:evenodd;clip-rule:evenodd;fill:url(#SVGID_00000140706638585373443690000016044659804144785815_);}
	.st10{fill-rule:evenodd;clip-rule:evenodd;fill:url(#SVGID_00000158014159152859995510000005511127925225870762_);}
	
		.st11{opacity:0.322;fill-rule:evenodd;clip-rule:evenodd;fill:url(#SVGID_00000063611128728126468800000017119325974199361215_);enable-background:new    ;}
</style>
<g transform="translate(221.43,-22.173)">
	<path class="st0" d="M-55.5,151.5l-139.6,141.7v26.3l250.4,59.3l128.2-150.7v-25.2L-55.5,151.5z"/>
	<path class="st1" d="M-195.1,319.5l250.4,59.3v-27.1l-250.4-58.6V319.5z"/>
	<path class="st2" d="M-7.8,161.7l-26,27.1l47.3,10.4l25.6-27.3L-7.8,161.7z M13.5,199.2l-26.8,28.7l49.2,10.9l26.4-29.1L13.5,199.2
		z M62.1,209.8l48.1,10.5l24.7-27.9l-47.7-10.3L62.1,209.8z M110.4,220.4l-25.9,29.3l49.3,10.9v26l25.4-29.8V231L110.4,220.4z
		 M84.5,249.7l-48.6-10.8L9.6,267.8l49,11L84.5,249.7z M58.6,278.9L31.9,309l50.2,11.6v26.7l26.2-30.8V290L58.6,278.9z M31.9,309
		l-49.6-11.4l-27.9,30.6v26.7l50.1,11.8v-26.9L31.9,309z M-17.7,297.5l27.1-29.8l-49.6-11.2L-67.7,286L-17.7,297.5z M-67.7,286.1
		l-48.6-11.2l-28.8,30.1v26.4L-96,343v-26.6L-67.7,286.1z M-116.4,274.9l28-29.2l-49.2-11l-28.5,28.9L-116.4,274.9z M-88.4,245.6
		l48.2,10.9l26.8-28.7L-61,217.2L-88.4,245.6z M-61.2,217.3l27.3-28.4l-48.2-10.5l-27.7,28.1L-61.2,217.3z"/>
	<path class="st3" d="M55.3,378.8l128.2-150.7v-25.2L55.3,351.8V378.8z"/>
</g>
<g>
	<g>
		<defs>
			<polygon id="SVGID_1_" points="165.9,129.3 26.4,271 276.8,329.6 276.8,356.7 405,206 405,180.7 			"/>
		</defs>
		<clipPath id="SVGID_00000065053240441402640890000012506758134639459770_">
			<use xlink:href="#SVGID_1_"  style="overflow:visible;"/>
		</clipPath>
		<g transform="translate(0,-1.6e-4)" style="clip-path:url(#SVGID_00000065053240441402640890000012506758134639459770_);">
			<path class="st5" d="M337.4,230.5L87.1,318.3c-12.6,4.5-36.2-37.2-40.5-60.7c-3.7-20.1-3.3-61.3,13.1-62.1l242.4-11.4"/>
			<path class="st5" d="M337.4,230.5L94.1,312.9c-12,4.1-34-35.1-38.1-57.2c-3.5-18.9-3-57.6,12.4-58.4l233.7-13.1"/>
			<path class="st5" d="M337.4,230.5L98,310c-11.6,3.9-32.9-33.9-36.8-55.2c-3.4-18.3-2.9-55.6,12-56.4l229-14.1"/>
			<path class="st5" d="M337.4,230.5l-236.4,77c-11.3,3.8-31.9-32.9-35.8-53.6c-3.3-17.7-2.9-54,11.6-54.8l225.2-14.9"/>
			<path class="st5" d="M337.4,230.5l-233.6,74.9c-10.9,3.7-31-32.1-34.8-52.3c-3.2-17.4-2.8-52.6,11.3-53.4l221.8-15.6"/>
			<path class="st5" d="M337.4,230.5l-231,73.1c-10.6,3.5-30.4-31.3-34-51c-3.2-17-2.8-51.3,11-52.2l218.8-16.3"/>
			<path class="st5" d="M337.4,230.5l-228.7,71.3c-10.5,3.4-29.6-30.5-33.3-49.8c-3-16.6-2.6-50,10.8-50.9l215.9-16.8"/>
			<path class="st5" d="M337.4,230.5L110.9,300c-10.3,3.3-28.9-29.8-32.5-48.8c-3-16.2-2.6-48.9,10.5-49.8l213.1-17.4"/>
			<path class="st5" d="M337.4,230.5l-224.4,68c-10,3.2-28.4-29.2-31.8-47.7C78.3,235,78.7,203,91.5,202l210.6-17.9"/>
			<path class="st5" d="M337.4,230.5L115,297c-9.9,3-27.7-28.7-31.2-46.7c-2.9-15.5-2.5-46.8,10.1-47.7l208.2-18.4"/>
			<path class="st5" d="M337.4,230.5l-220.6,65.1c-9.6,3-27.2-28-30.5-45.7c-2.8-15.1-2.4-45.7,9.9-46.8l205.9-18.9"/>
			<path class="st5" d="M337.4,230.5l-218.8,63.6c-9.5,2.9-26.7-27.5-29.8-44.8c-2.8-14.9-2.4-44.8,9.6-45.7l203.6-19.3"/>
			<path class="st5" d="M337.4,230.5l-216.9,62.3c-9.3,2.8-26.2-26.9-29.3-43.9c-2.6-14.6-2.4-43.9,9.5-45l201.4-19.7"/>
			<path class="st5" d="M337.4,230.5l-215.2,61c-9.1,2.8-25.6-26.4-28.7-43.1c-2.6-14.3-2.2-43,9.3-44l199.3-20.2"/>
			<path class="st5" d="M337.4,230.5l-213.6,59.7c-8.9,2.6-25.1-25.9-28.1-42.2c-2.6-13.9-2.2-42.1,9.1-43.1l197.3-20.6"/>
			<path class="st5" d="M337.4,230.5L125.5,289c-8.8,2.6-24.6-25.4-27.6-41.4c-2.5-13.7-2.2-41.3,8.9-42.3l195.4-21"/>
			<path class="st5" d="M337.4,230.5l-210.3,57.3c-8.7,2.5-24.2-24.8-27.1-40.6c-2.5-13.4-2.1-40.5,8.8-41.5l193.4-21.4"/>
			<path class="st5" d="M337.4,230.5l-208.9,56.1c-8.4,2.4-23.7-24.5-26.6-39.8c-2.5-13.1-2.1-39.7,8.5-40.8l191.5-21.8"/>
			<path class="st5" d="M337.4,230.5l-207.3,55c-8.3,2.4-23.3-23.9-26-39c-2.4-13-2.1-38.9,8.4-40l189.6-22.2"/>
			<path class="st5" d="M337.4,230.5l-205.9,53.9c-8.2,2.2-22.9-23.5-25.5-38.4c-2.4-12.8-2-38.1,8.3-39.2l187.9-22.6"/>
			<path class="st5" d="M337.4,230.5L133,283.2c-8,2.2-22.3-23-25.1-37.6c-2.4-12.5-2-37.3,8.2-38.5l186-22.9"/>
			<path class="st5" d="M337.4,230.5l-203,51.7c-7.9,2.1-22-22.6-24.6-36.9c-2.2-12.2-2-36.5,8-37.7l184.3-23.3"/>
			<path class="st5" d="M337.4,230.5l-201.5,50.6c-7.8,2.1-21.6-22.2-24.2-36.2c-2.2-12-1.8-35.9,7.8-37.1l182.6-23.7"/>
			<path class="st5" d="M337.4,230.5l-200.2,49.6c-7.6,2-21.2-21.8-23.7-35.5c-2.2-11.7-1.8-35.1,7.6-36.3l180.9-23.9"/>
			<path class="st5" d="M337.4,230.5L138.7,279c-7.5,2-20.8-21.3-23.3-34.8c-2.1-11.6-1.8-34.4,7.5-35.6l179.2-24.3"/>
			<path class="st5" d="M337.4,230.5L140,278c-7.4,1.8-20.4-20.9-22.7-34.2c-2.1-11.3-1.7-33.8,7.4-35l177.6-24.7"/>
			<path class="st5" d="M337.4,230.5l-196.1,46.4c-7.2,1.8-20-20.5-22.3-33.5c-2.1-11-1.7-33.1,7.2-34.3l176-25"/>
			<path class="st5" d="M337.4,230.5l-195,45.5c-7.1,1.7-19.6-20.1-22-32.9c-2-10.9-1.7-32.3,7.1-33.5l174.5-25.4"/>
			<path class="st5" d="M337.4,230.5l-193.6,44.4c-7,1.7-19.2-19.7-21.4-32.2c-2-10.6-1.7-31.7,7-33l172.9-25.6"/>
			<path class="st5" d="M337.4,230.5L145.1,274c-6.8,1.6-18.8-19.3-21-31.6c-2-10.5-1.6-31,6.8-32.3l171.3-25.9"/>
			<path class="st5" d="M337.4,230.5l-191.1,42.6c-6.7,1.6-18.4-18.9-20.6-31c-1.8-10.3-1.6-30.5,6.7-31.7l169.7-26.3"/>
			<path class="st5" d="M337.4,230.5l-190,41.7c-6.6,1.4-18-18.7-20.2-30.4c-1.8-10-1.6-29.8,6.6-31l168.3-26.6"/>
			<path class="st5" d="M337.4,230.5l-188.6,40.8c-6.4,1.4-17.7-18.3-19.9-29.7c-1.8-9.9-1.4-29.2,6.4-30.4l166.8-26.8"/>
			<path class="st5" d="M337.4,230.5L150,270.3c-6.3,1.3-17.4-17.9-19.5-29.2c-1.8-9.6-1.4-28.5,6.3-29.8l165.4-27.2"/>
			<path class="st5" d="M337.4,230.5l-186.3,38.9c-6.2,1.3-17-17.5-19.1-28.5c-1.7-9.5-1.4-27.9,6.2-29.2l163.8-27.5"/>
			<path class="st5" d="M337.4,230.5l-185.1,38c-6,1.3-16.6-17.1-18.7-28c-1.7-9.2-1.4-27.3,6-28.5l162.5-27.7"/>
			<path class="st5" d="M337.4,230.5l-184,37.1c-5.9,1.2-16.3-16.8-18.3-27.3c-1.7-9.1-1.3-26.7,5.9-28l161-28"/>
		</g>
	</g>
</g>
<g transform="translate(221.43,-22.173)">
	
		<radialGradient id="SVGID_00000176020409878979330410000015606445063889824675_" cx="-735.9503" cy="-491.3141" r="37.1877" gradientTransform="matrix(1.3965 -0.2285 0.1145 0.6996 1172.8346 403.1532)" gradientUnits="userSpaceOnUse">
		<stop  offset="0" style="stop-color:#000000"/>
		<stop  offset="0.4715" style="stop-color:#000000;stop-opacity:0.6448"/>
		<stop  offset="1" style="stop-color:#000000;stop-opacity:0"/>
	</radialGradient>
	
		<path style="opacity:0.577;fill-rule:evenodd;clip-rule:evenodd;fill:url(#SVGID_00000176020409878979330410000015606445063889824675_);enable-background:new    ;" d="
		M84.4,200.3c30.1-5,56.5,3.3,59,18.4s-20,31.3-50.1,36.3c-30.1,5-56.5-3.3-59-18.4S54.2,205.1,84.4,200.3z"/>
	
		<linearGradient id="SVGID_00000176038875586967866770000001754856363664945571_" gradientUnits="userSpaceOnUse" x1="-19.4192" y1="-299.7595" x2="114.1473" y2="-299.7595" gradientTransform="matrix(0.75 0 0 0.75 60.7949 410.2802)">
		<stop  offset="0" style="stop-color:#1C462B"/>
		<stop  offset="0.6235" style="stop-color:#215433"/>
		<stop  offset="0.7687" style="stop-color:#386747"/>
		<stop  offset="0.9478" style="stop-color:#7D9E83"/>
		<stop  offset="1" style="stop-color:#ACC1B0"/>
	</linearGradient>
	<path style="fill-rule:evenodd;clip-rule:evenodd;fill:url(#SVGID_00000176038875586967866770000001754856363664945571_);" d="
		M146.3,116h-100c0,13.8,0,99.9,0,113.8c0,13.8,22.5,25.1,50.1,25.1s50.1-11.2,50.1-25.1V116H146.3z"/>
	
		<linearGradient id="SVGID_00000043450006477156687900000009014548484158910087_" gradientUnits="userSpaceOnUse" x1="330.3188" y1="-135.7137" x2="399.78" y2="-158.1425" gradientTransform="matrix(0.75 0 0 0.75 -159.6838 220.4356)">
		<stop  offset="0" style="stop-color:#7DA684"/>
		<stop  offset="1" style="stop-color:#A1BFA7"/>
	</linearGradient>
	
		<ellipse style="fill-rule:evenodd;clip-rule:evenodd;fill:url(#SVGID_00000043450006477156687900000009014548484158910087_);" cx="96.3" cy="116" rx="50.1" ry="25.1"/>
	
		<linearGradient id="SVGID_00000041981594933523983190000008663535469084105865_" gradientUnits="userSpaceOnUse" x1="-437.6167" y1="-102.2137" x2="-304.8116" y2="-102.2137" gradientTransform="matrix(0.75 0 0 0.75 374.6752 205.789)">
		<stop  offset="0" style="stop-color:#295B3C"/>
		<stop  offset="0.3063" style="stop-color:#2E5D40"/>
		<stop  offset="0.6393" style="stop-color:#9CB8A4"/>
		<stop  offset="1" style="stop-color:#FFFDFF"/>
	</linearGradient>
	<path style="fill-rule:evenodd;clip-rule:evenodd;fill:url(#SVGID_00000041981594933523983190000008663535469084105865_);" d="
		M96.3,139.8L96.3,139.8c12.4,0,24.5-1.8,35-6.8c4.1-2,7.9-4.3,10.8-7.5c2.5-2.6,4.1-6,4.3-9.5c0.1,3.5-1.2,7.1-3.5,10
		c-2.8,3.5-6.6,6.3-10.6,8.4c-10.6,5.7-23.1,7.9-35.8,7.9l0,0c-12.6,0-25.1-2.2-35.8-7.9c-4.2-2.2-7.9-5-10.6-8.4
		c-2.4-3-3.8-6.6-3.5-10c0.1,3.4,1.8,6.8,4.3,9.5c2.9,3.2,6.7,5.5,10.8,7.5C71.9,137.9,83.8,139.8,96.3,139.8L96.3,139.8z"/>
	
		<linearGradient id="SVGID_00000068676861344217726330000000917015477707632049_" gradientUnits="userSpaceOnUse" x1="322.6005" y1="-135.0218" x2="380.3766" y2="-148.1256" gradientTransform="matrix(0.75 0 0 0.75 -159.6838 220.4356)">
		<stop  offset="0" style="stop-color:#7DA684"/>
		<stop  offset="1" style="stop-color:#92B498"/>
	</linearGradient>
	
		<ellipse style="fill-rule:evenodd;clip-rule:evenodd;fill:url(#SVGID_00000068676861344217726330000000917015477707632049_);" cx="96.3" cy="116" rx="50.1" ry="25.1"/>
	
		<radialGradient id="SVGID_00000013904545236993758520000011186429219672429476_" cx="-708.8341" cy="-125.2728" r="37.1999" gradientTransform="matrix(1.5125 0 0 1.4327 1122.468 419.6293)" gradientUnits="userSpaceOnUse">
		<stop  offset="0" style="stop-color:#000000"/>
		<stop  offset="1" style="stop-color:#000000;stop-opacity:0"/>
	</radialGradient>
	
		<path style="opacity:0.322;fill-rule:evenodd;clip-rule:evenodd;fill:url(#SVGID_00000013904545236993758520000011186429219672429476_);enable-background:new    ;" d="
		M146.3,116h-100c0,13.8,0,99.9,0,113.8c0,13.8,22.5,25.1,50.1,25.1s50.1-11.2,50.1-25.1V116H146.3z"/>
</g>
</svg>
