<?xml version="1.0" encoding="utf-8"?>
<!-- Generator: Adobe Illustrator 28.2.0, SVG Export Plug-In . SVG Version: 6.00 Build 0)  -->
<svg version="1.1"
	 id="Layer_1" xmlns:rdf="http://www.w3.org/1999/02/22-rdf-syntax-ns#" xmlns:cc="http://web.resource.org/cc/" xmlns:dc="http://purl.org/dc/elements/1.1/"
	 xmlns="http://www.w3.org/2000/svg" xmlns:xlink="http://www.w3.org/1999/xlink" x="0px" y="0px" viewBox="0 0 360 360"
	 style="enable-background:new 0 0 360 360;" xml:space="preserve">
<style type="text/css">
	.st0{fill:none;stroke:#000000;stroke-width:2.1094;stroke-miterlimit:4.2189;}
	.st1{fill:none;stroke:#000000;stroke-width:3.1642;stroke-miterlimit:4.2189;}
</style>
<g>
	<circle class="st0" cx="179.5" cy="177" r="21.1"/>
	<circle class="st0" cx="179.5" cy="177" r="27.5"/>
	<circle class="st0" cx="179.5" cy="177" r="33.9"/>
	<circle class="st0" cx="179.5" cy="177" r="40.3"/>
	<circle class="st0" cx="179.5" cy="177" r="46.7"/>
	<circle class="st0" cx="179.5" cy="177" r="53"/>
	<circle class="st0" cx="179.5" cy="177" r="59.4"/>
	<circle class="st0" cx="179.5" cy="177" r="65.8"/>
	<circle class="st0" cx="179.5" cy="177" r="72.2"/>
	<circle class="st0" cx="179.5" cy="177" r="78.6"/>
	<circle class="st0" cx="179.5" cy="177" r="85"/>
	<circle class="st0" cx="179.5" cy="177" r="91.4"/>
	<circle class="st0" cx="179.5" cy="177" r="97.8"/>
	<circle class="st0" cx="179.5" cy="177" r="104.2"/>
	<circle class="st0" cx="179.5" cy="177" r="110.5"/>
	<circle class="st0" cx="179.5" cy="177" r="116.9"/>
	<circle class="st0" cx="179.5" cy="177" r="123.3"/>
	<circle class="st0" cx="179.5" cy="177" r="129.7"/>
	<circle class="st0" cx="179.5" cy="177" r="136.1"/>
	<circle class="st0" cx="179.5" cy="177" r="142.5"/>
	<circle class="st0" cx="179.5" cy="177" r="148.9"/>
</g>
<path class="st1" d="M41.4,180L180,318.6L318.6,180L180,41.4L41.4,180z"/>
</svg>
